<svg width="68" height="94" viewBox="0 0 68 94" fill="none" xmlns="http://www.w3.org/2000/svg">
<path d="M25.8332 0.0274429C24.8331 0.140335 23.1467 0.509811 22.2839 0.797188C20.3327 1.45403 19.0287 2.23404 17.7442 3.51694C16.7833 4.48169 16.2735 5.20012 14.9891 7.36566C13.1948 10.4036 12.7045 10.9065 8.82182 13.7186C6.04705 15.7405 4.7332 16.8797 3.44877 18.3679C2.04667 19.9997 0.870092 22.1447 0.340631 24.0332C0.0170709 25.1724 -0.100587 27.1327 0.0955096 28.3643C0.370045 30.2014 1.23287 32.1412 2.84087 34.6043C5.5372 38.7507 6.00783 39.4999 6.50788 40.557C7.5668 42.8047 7.79231 43.9952 7.92958 48.2545C8.05704 52.0519 8.31197 53.3656 9.23362 55.0795C10.6651 57.7377 13.7635 60.0264 17.1559 60.909C17.4599 60.9911 17.4991 61.0322 17.4795 61.299C17.4697 61.4633 16.8128 68.6783 16.0186 77.32C15.2244 85.9719 14.5969 93.0741 14.6263 93.1049C14.6557 93.1356 18.911 91.0625 24.088 88.4864L33.4908 83.8166L43.4231 88.9072C48.8746 91.709 53.3554 93.9875 53.375 93.967C53.3946 93.9464 52.3847 86.8545 51.1199 78.2231C49.8551 69.5815 48.8354 62.428 48.855 62.3254C48.8648 62.1714 49.0217 62.0893 49.5609 61.9456C50.5512 61.689 51.1493 61.4222 52.6985 60.5498C54.5124 59.5235 55.5615 58.7845 56.4733 57.8814C58.4833 55.9006 59.4932 53.4066 60.4443 48.0184C61.1699 43.9439 61.6699 42.7739 63.876 40.0746C65.5919 37.9707 66.3468 36.7186 66.8763 35.0867C67.3077 33.7422 67.4842 32.3875 67.4254 30.8685C67.3665 29.329 67.141 28.3438 66.5233 26.989C65.7978 25.3777 65.1212 24.4642 62.5033 21.5495C61.7484 20.7079 61.0032 19.8253 60.8463 19.5892C60.4149 18.9324 60.2188 18.1626 59.9541 16.0792C59.5128 12.6923 59.2677 11.666 58.5422 10.1367C56.5616 6.02119 51.669 3.88642 45.639 4.52274C42.0308 4.90248 41.5112 4.93327 40.6483 4.81011C39.5894 4.66643 38.4619 4.18406 35.1478 2.45983C32.5789 1.12561 31.167 0.550865 29.6571 0.222443C28.8923 0.0582275 26.6176 -0.0546646 25.8332 0.0274429ZM29.363 6.98592C29.7944 7.13987 31.1376 7.78646 32.3534 8.42278C37.2461 10.9989 38.7462 11.4915 41.668 11.4812C42.5505 11.4812 43.982 11.3889 45.0997 11.2554C47.2764 10.9989 49.0315 11.0194 50.1002 11.3068C51.1199 11.5839 52.0906 12.1176 52.5318 12.641C53.0613 13.267 53.2868 14.0676 53.5809 16.3563C54.2477 21.57 54.7183 22.6271 58.0421 26.2911C60.8855 29.4214 61.2875 30.2014 61.0718 32.0283C60.9149 33.2804 60.6012 33.8346 58.4833 36.4517C57.493 37.6833 56.8852 38.607 56.2478 39.9002C55.2674 41.8399 54.8065 43.441 54.081 47.4334C53.4927 50.6355 52.9436 52.2161 52.1494 53.0269C51.6592 53.5298 50.6297 54.1969 49.208 54.9564C48.4236 55.3771 48.0314 55.5208 47.5215 55.5927C46.3351 55.7466 44.737 55.5003 41.8151 54.7306C36.5303 53.345 34.0791 52.9858 30.8827 53.1398C29.2061 53.2219 27.8236 53.4169 24.7547 54.0019C21.6367 54.5971 20.4602 54.7306 19.411 54.5766C17.2344 54.2687 15.1361 52.8934 14.6165 51.4361C14.3714 50.7484 14.2243 49.0653 14.2145 46.91C14.2145 43.4307 13.636 40.7212 12.3025 37.8475C11.5574 36.2567 10.7926 34.9635 9.01792 32.2951C7.05695 29.3598 6.47846 28.2616 6.32158 27.1532C6.1549 25.9935 6.99812 24.1256 8.39041 22.545C9.13557 21.7137 10.371 20.6874 12.5477 19.1068C17.0971 15.8123 18.3031 14.5192 20.6268 10.4549C21.4799 8.96674 22.0878 8.21751 22.7741 7.78646C24.5194 6.68829 27.4902 6.32908 29.363 6.98592ZM30.3729 69.2633C30.3925 76.7042 30.3631 78.685 30.2748 78.7671C30.0787 78.921 21.4406 83.2008 21.3034 83.2008C21.2249 83.2008 21.1955 83.0982 21.2249 82.9134C21.2544 82.7595 21.7152 77.7818 22.2643 71.8599C22.8035 65.9278 23.2643 61.0732 23.2742 61.063C23.382 60.9398 30.0003 59.7903 30.2454 59.8417C30.314 59.8622 30.3532 63.1054 30.3729 69.2633ZM39.8051 61.0425C41.3935 61.4427 42.7564 61.8019 42.8348 61.843C42.9427 61.9046 43.3741 64.6346 44.5311 72.5373C45.3841 78.3771 46.0704 83.2521 46.0606 83.3753C46.0312 83.5703 45.5704 83.3548 41.0797 81.0558L36.1283 78.5105L36.0989 69.3454L36.0793 60.1803L36.4911 60.2522C36.7264 60.2932 38.2167 60.6525 39.8051 61.0425Z" fill="black"/>
<path d="M32.667 17.4133C29.3922 17.8547 26.4802 19.3428 24.1662 21.7752C22.068 23.9716 20.7149 26.6297 20.1267 29.6985C19.8717 31.0737 19.8913 34.0501 20.1757 35.4459C20.8228 38.5762 22.3033 41.337 24.4702 43.4615C26.5096 45.4628 29.0393 46.797 31.814 47.341C32.5102 47.4847 33.2455 47.536 34.3633 47.536C35.481 47.536 36.2164 47.4847 36.9125 47.341C42.5111 46.2531 46.9331 41.9528 48.3352 36.2464C50.051 29.2982 46.8546 22.0215 40.7364 18.8913C39.4422 18.2344 38.5303 17.906 37.1577 17.6186C35.9811 17.362 33.7946 17.2697 32.667 17.4133ZM35.5399 22.2473C38.7657 22.6476 41.6679 24.7824 43.119 27.8305C43.8642 29.4111 44.1583 30.694 44.1583 32.449C44.1583 33.1264 44.0995 33.9577 44.0309 34.2964C43.2072 38.4325 40.4227 41.4807 36.5694 42.4865C35.3242 42.8046 33.2357 42.7841 31.9611 42.4249C30.2158 41.9528 28.8137 41.1214 27.5195 39.7975C26.2057 38.4633 25.3036 36.8622 24.8232 34.9635C24.6173 34.1219 24.578 33.773 24.578 32.449C24.578 31.125 24.6173 30.7761 24.8232 29.9345C25.8723 25.8087 29.1569 22.7708 33.1377 22.2473C34.0691 22.1242 34.5496 22.1242 35.5399 22.2473Z" fill="black"/>
</svg>
